<svg xmlns="http://www.w3.org/2000/svg" viewBox="0 0 24 24" width="24" height="24" fill="none">
  <path fill="#f5f5f5" d="M23.922 16.992c-.072 1.418-1.045 2.94-2.063 4.082-.71.795-1.55 1.495-2.475 2.072C17.318 24.27 14.59 25 12 25c-2.59 0-5.318-.73-7.384-1.854-.925-.577-1.764-1.277-2.475-2.072C1.123 19.932.15 18.41.078 16.992.03 16.062 0 14.93 0 13.6c0-1.495.504-2.832 1.42-3.86.144-.162.3-.314.466-.456C2.74 6.61 5.06 5.5 8.07 5.5c.46 0 .91.03 1.346.087C10.218 4.42 11.06 4 12 4s1.782.42 2.584 1.087A10.46 10.46 0 0 1 15.93 5.5c3.01 0 5.33 1.11 6.184 3.784.166.142.322.294.466.456.916 1.028 1.42 2.365 1.42 3.86 0 1.33-.03 2.462-.078 3.392ZM12 6.2c-.42 0-.86.27-1.276.86-.11.155-.214.33-.31.52.52.21.99.49 1.39.83.205.175.41.37.598.585.188-.215.393-.41.598-.585.4-.34.87-.62 1.39-.83a4.06 4.06 0 0 0-.31-.52C12.86 6.47 12.42 6.2 12 6.2Zm-3.93 1.5c-2.42 0-4.014.91-4.49 2.81-.13.52-.2 1.28-.2 2.29 0 .12.002.236.005.35.91-.66 2.16-1.05 3.595-1.05 1.16 0 2.05.21 2.71.62.49.305.86.71 1.105 1.205V11.7c0-1.78-.79-3.18-2.06-3.78a4.13 4.13 0 0 0-.665-.22ZM21 13.2c0-1.01-.07-1.77-.2-2.29-.476-1.9-2.07-2.81-4.49-2.81-.226 0-.448.075-.665.22-1.27.6-2.06 2-2.06 3.78v2.475c.245-.495.615-.9 1.105-1.205.66-.41 1.55-.62 2.71-.62 1.435 0 2.685.39 3.595 1.05.003-.114.005-.23.005-.35Z"/>
  <ellipse cx="8.4" cy="15.4" rx="1.15" ry="1.5" fill="#1f1f1f"/>
  <ellipse cx="15.6" cy="15.4" rx="1.15" ry="1.5" fill="#1f1f1f"/>
</svg>
